<svg width="164" height="162" viewBox="0 0 164 162" fill="none" xmlns="http://www.w3.org/2000/svg">
<path d="M112.174 40.9477C76.9683 48.7459 66.7401 35.0648 45.196 81.3502C52.6096 45.1856 76.0439 22.6936 98.0495 1.79394L112.174 40.9477Z" fill="#0EA47A" stroke="#0EA47A"/>
<path d="M123.328 111.088C114.897 76.0284 128.392 65.5557 81.7267 44.8476C118.019 51.6095 140.929 74.6355 162.221 96.2616L123.328 111.088Z" fill="#0EA47A" stroke="#0EA47A"/>
<path d="M50.8075 120.916C86.1059 113.551 96.1654 127.357 118.276 81.3393C110.419 117.41 86.7104 139.613 64.4498 160.241L50.8075 120.916Z" fill="#0EA47A" stroke="#0EA47A"/>
<path d="M40.8738 51.1792C48.899 86.3335 35.2842 96.6498 81.7076 117.895C45.4959 110.715 22.8532 87.426 1.81199 65.5557L40.8738 51.1792Z" fill="#0EA47A" stroke="#0EA47A"/>
<circle cx="81.7268" cy="81.3392" r="11.6247" fill="#0EA47A"/>
</svg>
