<svg width="1114" height="162" viewBox="0 0 1114 162" fill="none" xmlns="http://www.w3.org/2000/svg">
<path d="M112.174 40.9477C76.9683 48.7459 66.7401 35.0648 45.196 81.3502C52.6096 45.1856 76.0439 22.6936 98.0495 1.79394L112.174 40.9477Z" fill="#0EA47A" stroke="#0EA47A"/>
<path d="M123.328 111.088C114.897 76.0284 128.392 65.5557 81.7267 44.8476C118.019 51.6095 140.929 74.6355 162.221 96.2616L123.328 111.088Z" fill="#0EA47A" stroke="#0EA47A"/>
<path d="M50.8075 120.916C86.1059 113.551 96.1654 127.357 118.276 81.3393C110.419 117.41 86.7104 139.613 64.4498 160.241L50.8075 120.916Z" fill="#0EA47A" stroke="#0EA47A"/>
<path d="M40.8738 51.1792C48.899 86.3335 35.2842 96.6498 81.7076 117.895C45.4959 110.715 22.8532 87.426 1.81199 65.5557L40.8738 51.1792Z" fill="#0EA47A" stroke="#0EA47A"/>
<circle cx="81.7268" cy="81.3392" r="11.6247" fill="#0EA47A"/>
<path d="M206.592 127V37.4H240.128C247.723 37.4 254.251 38.6373 259.712 41.112C265.173 43.5013 269.355 47 272.256 51.608C275.243 56.1307 276.736 61.6347 276.736 68.12C276.736 74.4347 275.243 79.896 272.256 84.504C269.355 89.0267 265.173 92.5253 259.712 95C254.251 97.3893 247.723 98.584 240.128 98.584H211.84L216.064 94.232V127H206.592ZM267.776 127L244.736 94.488H254.976L278.144 127H267.776ZM216.064 95L211.84 90.52H239.872C248.832 90.52 255.616 88.5573 260.224 84.632C264.917 80.7067 267.264 75.2027 267.264 68.12C267.264 60.952 264.917 55.4053 260.224 51.48C255.616 47.5547 248.832 45.592 239.872 45.592H211.84L216.064 41.112V95ZM297.684 152.472C294.527 152.472 291.497 151.96 288.596 150.936C285.78 149.912 283.348 148.376 281.3 146.328L285.524 139.544C287.231 141.165 289.065 142.403 291.028 143.256C293.076 144.195 295.337 144.664 297.812 144.664C300.799 144.664 303.359 143.811 305.492 142.104C307.711 140.483 309.801 137.581 311.764 133.4L316.116 123.544L317.14 122.136L344.788 59.8H353.748L320.084 135.064C318.207 139.416 316.116 142.872 313.812 145.432C311.593 147.992 309.161 149.784 306.516 150.808C303.871 151.917 300.927 152.472 297.684 152.472ZM315.604 128.92L284.628 59.8H294.1L321.492 121.496L315.604 128.92ZM366.547 127V32.024H375.635V127H366.547ZM427.674 127.64C421.274 127.64 415.514 126.189 410.394 123.288C405.359 120.387 401.391 116.376 398.49 111.256C395.589 106.051 394.138 100.077 394.138 93.336C394.138 86.5093 395.589 80.536 398.49 75.416C401.391 70.296 405.359 66.328 410.394 63.512C415.514 60.6107 421.274 59.16 427.674 59.16C433.562 59.16 438.81 60.4827 443.418 63.128C448.111 65.7733 451.823 69.656 454.554 74.776C457.37 79.8107 458.778 85.9973 458.778 93.336C458.778 100.589 457.413 106.776 454.682 111.896C451.951 117.016 448.239 120.941 443.546 123.672C438.938 126.317 433.647 127.64 427.674 127.64ZM428.314 119.576C433.093 119.576 437.359 118.509 441.114 116.376C444.954 114.157 447.941 111.085 450.074 107.16C452.293 103.149 453.402 98.5413 453.402 93.336C453.402 88.0453 452.293 83.4373 450.074 79.512C447.941 75.5867 444.954 72.5573 441.114 70.424C437.359 68.2053 433.093 67.096 428.314 67.096C423.621 67.096 419.397 68.2053 415.642 70.424C411.887 72.5573 408.901 75.5867 406.682 79.512C404.463 83.4373 403.354 88.0453 403.354 93.336C403.354 98.5413 404.463 103.149 406.682 107.16C408.901 111.085 411.887 114.157 415.642 116.376C419.397 118.509 423.621 119.576 428.314 119.576ZM453.658 127V106.776L454.554 93.208L453.274 79.64V32.024H462.362V127H453.658ZM516.216 127.64C509.219 127.64 503.075 126.189 497.784 123.288C492.493 120.301 488.355 116.248 485.368 111.128C482.381 105.923 480.888 99.992 480.888 93.336C480.888 86.68 482.296 80.792 485.112 75.672C488.013 70.552 491.939 66.5413 496.888 63.64C501.923 60.6533 507.555 59.16 513.784 59.16C520.099 59.16 525.688 60.6107 530.552 63.512C535.501 66.328 539.384 70.3387 542.2 75.544C545.016 80.664 546.424 86.5947 546.424 93.336C546.424 93.7627 546.381 94.232 546.296 94.744C546.296 95.1707 546.296 95.64 546.296 96.152H487.8V89.368H541.432L537.848 92.056C537.848 87.192 536.781 82.8827 534.648 79.128C532.6 75.288 529.784 72.3013 526.2 70.168C522.616 68.0347 518.477 66.968 513.784 66.968C509.176 66.968 505.037 68.0347 501.368 70.168C497.699 72.3013 494.84 75.288 492.792 79.128C490.744 82.968 489.72 87.3627 489.72 92.312V93.72C489.72 98.84 490.829 103.363 493.048 107.288C495.352 111.128 498.509 114.157 502.52 116.376C506.616 118.509 511.267 119.576 516.472 119.576C520.568 119.576 524.365 118.851 527.864 117.4C531.448 115.949 534.52 113.731 537.08 110.744L542.2 116.632C539.213 120.216 535.459 122.947 530.936 124.824C526.499 126.701 521.592 127.64 516.216 127.64ZM564.922 127V59.8H573.626V78.104L572.73 74.904C574.607 69.784 577.765 65.9013 582.202 63.256C586.639 60.5253 592.143 59.16 598.714 59.16V67.992C598.373 67.992 598.031 67.992 597.69 67.992C597.349 67.9067 597.007 67.864 596.666 67.864C589.583 67.864 584.037 70.04 580.026 74.392C576.015 78.6587 574.01 84.76 574.01 92.696V127H564.922ZM690.885 127.768C684.144 127.768 677.872 126.659 672.069 124.44C666.352 122.136 661.36 118.936 657.093 114.84C652.912 110.659 649.626 105.837 647.237 100.376C644.933 94.8293 643.781 88.7707 643.781 82.2C643.781 75.6293 644.933 69.6133 647.237 64.152C649.626 58.6053 652.912 53.784 657.093 49.688C661.36 45.5067 666.352 42.3067 672.069 40.088C677.786 37.784 684.058 36.632 690.885 36.632C697.626 36.632 703.856 37.784 709.573 40.088C715.29 42.3067 720.24 45.464 724.421 49.56C728.688 53.656 731.973 58.4773 734.277 64.024C736.666 69.5707 737.861 75.6293 737.861 82.2C737.861 88.7707 736.666 94.8293 734.277 100.376C731.973 105.923 728.688 110.744 724.421 114.84C720.24 118.936 715.29 122.136 709.573 124.44C703.856 126.659 697.626 127.768 690.885 127.768ZM690.885 119.32C696.261 119.32 701.21 118.424 705.733 116.632C710.341 114.755 714.309 112.152 717.637 108.824C721.05 105.411 723.696 101.485 725.573 97.048C727.45 92.5253 728.389 87.576 728.389 82.2C728.389 76.824 727.45 71.9173 725.573 67.48C723.696 62.9573 721.05 59.032 717.637 55.704C714.309 52.2907 710.341 49.688 705.733 47.896C701.21 46.0187 696.261 45.08 690.885 45.08C685.509 45.08 680.517 46.0187 675.909 47.896C671.301 49.688 667.29 52.2907 663.877 55.704C660.549 59.032 657.904 62.9573 655.941 67.48C654.064 71.9173 653.125 76.824 653.125 82.2C653.125 87.4907 654.064 92.3973 655.941 96.92C657.904 101.443 660.549 105.411 663.877 108.824C667.29 112.152 671.301 114.755 675.909 116.632C680.517 118.424 685.509 119.32 690.885 119.32ZM757.172 127V32.024H766.26V127H757.172ZM791.547 127V59.8H800.635V127H791.547ZM796.155 44.952C794.278 44.952 792.699 44.312 791.419 43.032C790.139 41.752 789.499 40.216 789.499 38.424C789.499 36.632 790.139 35.1387 791.419 33.944C792.699 32.664 794.278 32.024 796.155 32.024C798.032 32.024 799.611 32.6213 800.891 33.816C802.171 35.0107 802.811 36.504 802.811 38.296C802.811 40.1733 802.171 41.752 800.891 43.032C799.696 44.312 798.118 44.952 796.155 44.952ZM843.202 127L813.378 59.8H822.85L850.242 122.136H845.762L873.538 59.8H882.498L852.546 127H843.202ZM921.966 127.64C914.969 127.64 908.825 126.189 903.534 123.288C898.243 120.301 894.105 116.248 891.118 111.128C888.131 105.923 886.638 99.992 886.638 93.336C886.638 86.68 888.046 80.792 890.862 75.672C893.763 70.552 897.689 66.5413 902.638 63.64C907.673 60.6533 913.305 59.16 919.534 59.16C925.849 59.16 931.438 60.6107 936.302 63.512C941.251 66.328 945.134 70.3387 947.95 75.544C950.766 80.664 952.174 86.5947 952.174 93.336C952.174 93.7627 952.131 94.232 952.046 94.744C952.046 95.1707 952.046 95.64 952.046 96.152H893.55V89.368H947.182L943.598 92.056C943.598 87.192 942.531 82.8827 940.398 79.128C938.35 75.288 935.534 72.3013 931.95 70.168C928.366 68.0347 924.227 66.968 919.534 66.968C914.926 66.968 910.787 68.0347 907.118 70.168C903.449 72.3013 900.59 75.288 898.542 79.128C896.494 82.968 895.47 87.3627 895.47 92.312V93.72C895.47 98.84 896.579 103.363 898.798 107.288C901.102 111.128 904.259 114.157 908.27 116.376C912.366 118.509 917.017 119.576 922.222 119.576C926.318 119.576 930.115 118.851 933.614 117.4C937.198 115.949 940.27 113.731 942.83 110.744L947.95 116.632C944.963 120.216 941.209 122.947 936.686 124.824C932.249 126.701 927.342 127.64 921.966 127.64ZM970.672 127V59.8H979.76V127H970.672ZM975.28 44.952C973.403 44.952 971.824 44.312 970.544 43.032C969.264 41.752 968.624 40.216 968.624 38.424C968.624 36.632 969.264 35.1387 970.544 33.944C971.824 32.664 973.403 32.024 975.28 32.024C977.157 32.024 978.736 32.6213 980.016 33.816C981.296 35.0107 981.936 36.504 981.936 38.296C981.936 40.1733 981.296 41.752 980.016 43.032C978.821 44.312 977.243 44.952 975.28 44.952ZM1005.05 127V59.8H1013.75V78.104L1012.86 74.904C1014.73 69.784 1017.89 65.9013 1022.33 63.256C1026.76 60.5253 1032.27 59.16 1038.84 59.16V67.992C1038.5 67.992 1038.16 67.992 1037.82 67.992C1037.47 67.9067 1037.13 67.864 1036.79 67.864C1029.71 67.864 1024.16 70.04 1020.15 74.392C1016.14 78.6587 1014.14 84.76 1014.14 92.696V127H1005.05ZM1092.53 127V112.152L1092.15 109.72V84.888C1092.15 79.1707 1090.53 74.776 1087.29 71.704C1084.13 68.632 1079.39 67.096 1073.08 67.096C1068.73 67.096 1064.59 67.8213 1060.66 69.272C1056.74 70.7227 1053.41 72.6427 1050.68 75.032L1046.58 68.248C1050 65.3467 1054.09 63.128 1058.87 61.592C1063.65 59.9707 1068.68 59.16 1073.97 59.16C1082.68 59.16 1089.38 61.336 1094.07 65.688C1098.85 69.9547 1101.24 76.4827 1101.24 85.272V127H1092.53ZM1069.37 127.64C1064.33 127.64 1059.94 126.829 1056.18 125.208C1052.51 123.501 1049.7 121.197 1047.73 118.296C1045.77 115.309 1044.79 111.896 1044.79 108.056C1044.79 104.557 1045.6 101.4 1047.22 98.584C1048.93 95.6827 1051.66 93.3787 1055.41 91.672C1059.25 89.88 1064.37 88.984 1070.77 88.984H1093.94V95.768H1071.03C1064.54 95.768 1060.02 96.92 1057.46 99.224C1054.99 101.528 1053.75 104.387 1053.75 107.8C1053.75 111.64 1055.24 114.712 1058.23 117.016C1061.22 119.32 1065.4 120.472 1070.77 120.472C1075.89 120.472 1080.29 119.32 1083.96 117.016C1087.71 114.627 1090.44 111.213 1092.15 106.776L1094.2 113.048C1092.49 117.485 1089.5 121.027 1085.24 123.672C1081.06 126.317 1075.77 127.64 1069.37 127.64Z" fill="white"/>
</svg>
